<svg xmlns:xlink="http://www.w3.org/1999/xlink" xmlns="http://www.w3.org/2000/svg" width="186" height="25" viewBox="0 0 186 25" fill="none"><path d="M49.1456 15.8163C50.1157 15.388 50.8879 14.7683 51.459 13.9507C52.3837 12.6302 52.8476 11.0404 52.8476 9.18125C52.8476 7.93859 52.6465 6.80949 52.2441 5.7972C51.8451 4.78491 51.2221 3.94458 50.372 3.2762C49.5252 2.60783 48.4383 2.17306 47.1113 1.96541C46.8258 1.91349 46.4981 1.88105 46.1347 1.86483C45.768 1.85185 45.4793 1.84211 45.2619 1.84211H35.8884V24.0412H40.0836V16.5171H44.7622L48.4058 24.0412H53.1558L49.1456 15.8163ZM48.4448 10.4531C48.328 10.9009 48.1138 11.3064 47.8056 11.6698C47.4974 12.0364 47.0594 12.296 46.4948 12.4485C46.2807 12.5101 46.0438 12.5523 45.7875 12.5718C45.5312 12.5913 45.2943 12.6042 45.077 12.6042H40.0836V5.75827H45.077C45.2943 5.75827 45.5312 5.768 45.7875 5.79071C46.0438 5.81018 46.2807 5.85236 46.4948 5.91401C47.0594 6.0665 47.4974 6.32606 47.8056 6.68945C48.1138 7.05608 48.328 7.46165 48.4448 7.90939C48.5648 8.35714 48.6232 8.77892 48.6232 9.18125C48.6232 9.58357 48.5648 10.0054 48.4448 10.4531Z" fill="white"></path><path d="M69.9658 11.6309C69.3785 10.1416 68.4733 8.98658 67.2501 8.16247C66.0269 7.3416 64.5442 6.92954 62.7954 6.92954C61.1504 6.92954 59.6968 7.30266 58.4347 8.04891C57.1693 8.7919 56.1765 9.83989 55.4595 11.1831C54.7392 12.5296 54.379 14.1129 54.379 15.9331C54.379 17.5976 54.7457 19.0738 55.4822 20.3652C56.2154 21.6532 57.2342 22.6655 58.5353 23.402C59.8331 24.1353 61.3385 24.5052 63.0419 24.5052C64.6447 24.5052 66.1242 24.0834 67.474 23.2398C68.8269 22.3962 69.8165 21.2152 70.4427 19.6935L66.2508 18.4931C65.9425 19.1712 65.4948 19.6903 64.9075 20.0472C64.3235 20.4073 63.6195 20.589 62.7954 20.589C61.4911 20.589 60.5015 20.164 59.8298 19.3172C59.3367 18.6975 59.0252 17.8863 58.8922 16.887H70.5822C70.7574 14.8754 70.5498 13.1234 69.9658 11.6309ZM59.0057 13.7755C59.1712 13.0066 59.4437 12.3674 59.8298 11.871C60.5015 11.0014 61.5527 10.5667 62.9803 10.5667C64.2035 10.5667 65.086 10.9398 65.6246 11.686C65.9782 12.176 66.2151 12.8735 66.3384 13.7755H59.0057Z" fill="white"></path><path d="M87.1131 11.7996C87.0515 11.1831 86.8568 10.5667 86.5259 9.95021C85.9419 8.84058 85.0788 8.06189 83.9367 7.60765C82.7947 7.15666 81.4904 6.92954 80.0206 6.92954C78.0187 6.92954 76.4354 7.36107 75.2738 8.22411C74.1123 9.08716 73.3206 10.2098 72.8988 11.5854L76.6917 12.7892C76.9577 12.0267 77.425 11.4978 78.0933 11.1993C78.7617 10.9008 79.4041 10.7516 80.0206 10.7516C81.1302 10.7516 81.9219 10.9852 82.3956 11.4459C82.7655 11.8093 82.9893 12.3349 83.0705 13.0195C82.3631 13.1266 81.6883 13.2272 81.0556 13.3213C79.9752 13.4803 79.0083 13.6457 78.155 13.8209C77.3017 13.9961 76.5684 14.1973 75.9519 14.4212C75.0565 14.7521 74.3459 15.1609 73.817 15.6476C73.2882 16.1343 72.9053 16.6988 72.6685 17.3348C72.4316 17.9739 72.3148 18.678 72.3148 19.447C72.3148 20.3716 72.5257 21.2185 72.954 21.9842C73.379 22.7499 74.0052 23.3599 74.8326 23.8173C75.6599 24.2748 76.6722 24.5052 77.863 24.5052C79.3003 24.5052 80.4911 24.2554 81.432 23.7557C82.1717 23.3631 82.8758 22.7726 83.5377 21.9939V24.0412H87.204V13.8664C87.204 13.1071 87.1748 12.4193 87.1131 11.7996ZM82.9893 17.4061C82.9537 18.0064 82.8271 18.532 82.6097 18.9862C82.4962 19.2231 82.2853 19.5151 81.9706 19.8623C81.6591 20.2127 81.2373 20.5241 80.7084 20.7967C80.1763 21.0692 79.5274 21.2055 78.7585 21.2055C78.275 21.2055 77.8565 21.1341 77.5093 20.9881C77.1589 20.8453 76.8896 20.6377 76.6982 20.3652C76.51 20.0926 76.4127 19.7649 76.4127 19.3853C76.4127 19.1095 76.4743 18.8565 76.5911 18.6293C76.7079 18.4055 76.8929 18.1978 77.1459 18.0064C77.399 17.815 77.73 17.6397 78.142 17.4743C78.4989 17.3412 78.9174 17.218 79.3879 17.1044C79.8616 16.9908 80.4846 16.8643 81.2535 16.728C81.7499 16.6372 82.3437 16.5334 83.0348 16.4166C83.025 16.7118 83.0121 17.0363 82.9893 17.4061Z" fill="white"></path><path d="M95.7371 11.4881C96.3016 11.0631 97.0252 10.8489 97.9109 10.8489C98.6831 10.8489 99.3742 11.089 99.9842 11.5725C100.594 12.0559 101.026 12.7275 101.272 13.5906L105.464 12.4809C105.094 10.7646 104.244 9.41162 102.914 8.41879C101.584 7.42596 99.9355 6.92954 97.9726 6.92954C96.2757 6.92954 94.8059 7.30916 93.5632 8.07162C92.3206 8.83084 91.357 9.87558 90.6724 11.1993C89.9878 12.5264 89.6471 14.0318 89.6471 15.7157C89.6471 17.3997 89.9748 18.8759 90.6334 20.2029C91.2921 21.5299 92.2362 22.5779 93.4692 23.3469C94.7021 24.1191 96.1816 24.5019 97.9077 24.5019C99.8414 24.5019 101.464 24.025 102.781 23.0679C104.095 22.1107 104.99 20.7513 105.464 18.983L101.178 18.0875C100.932 18.8889 100.562 19.5054 100.069 19.9369C99.5754 20.3684 98.8551 20.5858 97.9109 20.5858C96.6488 20.5858 95.6949 20.1348 95.0525 19.2361C94.4101 18.3373 94.0889 17.1628 94.0889 15.7125C94.0889 14.7878 94.2219 13.9572 94.488 13.2239C94.754 12.4907 95.1725 11.9099 95.7371 11.4816" fill="white"></path><path d="M123.001 11.3648C122.806 10.6283 122.479 9.92425 122.021 9.24614C121.564 8.56803 120.924 8.00673 120.104 7.56548C119.283 7.12422 118.218 6.90359 116.911 6.90359C115.276 6.90359 113.923 7.25724 112.849 7.96779C112.343 8.30198 111.901 8.68484 111.515 9.11636V1.84861H107.784V24.0477H112.038V15.5989C112.038 14.5607 112.154 13.7301 112.385 13.1006C112.615 12.4712 112.91 11.9975 113.271 11.6763C113.631 11.3518 114.014 11.1345 114.426 11.0209C114.838 10.9073 115.221 10.8522 115.581 10.8522C116.476 10.8522 117.167 11.0533 117.654 11.4524C118.144 11.8547 118.494 12.3512 118.712 12.9482C118.926 13.5451 119.056 14.1389 119.098 14.7294C119.14 15.3199 119.159 15.8066 119.159 16.1862V24.0477H123.413V14.7067C123.413 14.4277 123.394 13.9864 123.351 13.3797C123.309 12.7729 123.192 12.1046 122.998 11.3681" fill="white"></path><path d="M127.605 13.211L130.759 11.7477V24.0445H126.567V14.8397C126.567 14.1421 126.972 13.5062 127.608 13.211" fill="white"></path><path d="M130.755 6.46557V7.39027H134.61V10.8457H128.361C127.368 10.8457 126.563 10.041 126.563 9.04822V7.45191C126.563 7.03012 126.573 6.55317 126.596 6.01783C126.615 5.48572 126.7 4.94389 126.849 4.39881C126.998 3.85697 127.274 3.3638 127.673 2.9193C128.189 2.34502 128.744 1.95243 129.347 1.74153C129.947 1.53064 130.531 1.41708 131.096 1.40086C131.661 1.38788 132.144 1.37815 132.546 1.37815H134.61V4.76869H132.699C132.04 4.76869 131.554 4.9374 131.236 5.27159C130.914 5.60577 130.755 6.00485 130.755 6.46557Z" fill="white"></path><path d="M142.16 1.38139H137.968V24.0445H142.16V1.38139Z" fill="white"></path><path d="M160.612 11.1604C159.901 9.83989 158.911 8.80488 157.643 8.05539C156.374 7.3059 154.901 6.92954 153.227 6.92954C151.553 6.92954 150.128 7.29942 148.863 8.03917C147.601 8.77893 146.608 9.81069 145.888 11.1312C145.168 12.4517 144.811 13.9799 144.811 15.7157C144.811 17.4516 145.161 18.9505 145.865 20.2711C146.569 21.5916 147.552 22.6298 148.818 23.3793C150.083 24.1288 151.553 24.5052 153.227 24.5052C154.901 24.5052 156.358 24.1321 157.627 23.3858C158.898 22.6428 159.888 21.6078 160.602 20.2873C161.316 18.9668 161.676 17.4418 161.676 15.7157C161.676 13.9896 161.319 12.4809 160.612 11.1604ZM156.241 19.2231C155.576 20.1348 154.573 20.589 153.227 20.589C151.881 20.589 150.933 20.1478 150.258 19.2717C149.587 18.3925 149.249 17.2082 149.249 15.7157C149.249 14.7521 149.392 13.902 149.674 13.172C149.957 12.4453 150.391 11.8742 150.975 11.4622C151.563 11.0501 152.312 10.8457 153.227 10.8457C154.551 10.8457 155.55 11.2869 156.225 12.1727C156.897 13.0552 157.234 14.2362 157.234 15.7157C157.234 17.1952 156.903 18.3146 156.241 19.2231Z" fill="white"></path><path d="M181.899 7.39351L178.878 17.3218L175.812 7.39351H172.328L169.258 17.3218L166.238 7.39351L162.136 7.36432L167.224 24.0445H170.429L174.07 13.1915L177.707 24.0445H180.913L186 7.39351H181.899Z" fill="white"></path><path d="M26.0672 24.5052H1.49313C0.166113 24.5052 -0.499016 22.9056 0.438654 21.9679L5.83756 16.569L6.6487 15.7579H20.8987L21.7098 16.569L27.1152 21.9679C28.0496 22.9056 27.3845 24.5052 26.0607 24.5052" fill="#5551FC"></path><path d="M26.0673 15.7547H20.9053L14.8347 9.67766C14.254 9.09689 13.3131 9.09689 12.7323 9.67766L6.65527 15.7547H1.49646C0.169448 15.7547 -0.495682 14.1551 0.441988 13.2174L12.729 0.930398C13.3098 0.349627 14.2507 0.349627 14.8315 0.930398L21.7164 7.81855L27.1218 13.2174C28.0562 14.1551 27.3911 15.7547 26.0673 15.7547Z" fill="#55D3FF"></path><path d="M20.9052 15.7547H6.65519L12.7322 9.67766C13.313 9.09688 14.2539 9.09688 14.8347 9.67766L20.9052 15.7547Z" fill="#1440E0"></path></svg>